<svg width="184" height="65" viewBox="0 0 184 65" fill="none" xmlns="http://www.w3.org/2000/svg">
<rect x="69" y="17" width="6" height="33" fill="#D40000"/>
<path d="M72 2L78.9282 17H65.0718L72 2Z" fill="#D40000"/>
<rect x="125" y="50" width="6" height="33" transform="rotate(-180 125 50)" fill="#0000D4"/>
<path d="M122 65L115.072 50H128.928L122 65Z" fill="#0000D4"/>
<path d="M10.864 45.712C13.296 45.712 15.088 45.392 16.24 44.752C17.4347 44.112 18.032 43.088 18.032 41.68C18.032 40.2293 17.456 39.0773 16.304 38.224C15.152 37.3707 13.2533 36.4107 10.608 35.344C9.328 34.832 8.09067 34.32 6.896 33.808C5.744 33.2533 4.74133 32.6133 3.888 31.888C3.03467 31.1627 2.352 30.288 1.84 29.264C1.328 28.24 1.072 26.9813 1.072 25.488C1.072 22.544 2.16 20.2187 4.336 18.512C6.512 16.7627 9.47733 15.888 13.232 15.888C14.1707 15.888 15.1093 15.952 16.048 16.08C16.9867 16.1653 17.8613 16.2933 18.672 16.464C19.4827 16.592 20.1867 16.7413 20.784 16.912C21.424 17.0827 21.9147 17.232 22.256 17.36L21.168 22.48C20.528 22.1387 19.5253 21.7973 18.16 21.456C16.7947 21.072 15.152 20.88 13.232 20.88C11.568 20.88 10.1173 21.2213 8.88 21.904C7.64267 22.544 7.024 23.568 7.024 24.976C7.024 25.7013 7.152 26.3413 7.408 26.896C7.70667 27.4507 8.13333 27.9627 8.688 28.432C9.28533 28.8587 10.0107 29.264 10.864 29.648C11.7173 30.032 12.7413 30.4373 13.936 30.864C15.5147 31.4613 16.9227 32.0587 18.16 32.656C19.3973 33.2107 20.4427 33.872 21.296 34.64C22.192 35.408 22.8747 36.3467 23.344 37.456C23.8133 38.5227 24.048 39.8453 24.048 41.424C24.048 44.496 22.896 46.8213 20.592 48.4C18.3307 49.9787 15.088 50.768 10.864 50.768C7.92 50.768 5.616 50.512 3.952 50C2.288 49.5307 1.15733 49.168 0.56 48.912L1.648 43.792C2.33067 44.048 3.41867 44.432 4.912 44.944C6.40533 45.456 8.38933 45.712 10.864 45.712ZM54.7865 33.424C54.7865 29.5413 53.8265 26.5547 51.9065 24.464C49.9865 22.3733 47.4265 21.328 44.2265 21.328C42.4345 21.328 41.0265 21.392 40.0025 21.52C39.0212 21.648 38.2318 21.7973 37.6345 21.968V42.96C38.3598 43.5573 39.4052 44.1333 40.7705 44.688C42.1358 45.2427 43.6292 45.52 45.2505 45.52C46.9572 45.52 48.4078 45.2213 49.6025 44.624C50.8398 43.984 51.8425 43.1307 52.6105 42.064C53.3785 40.9547 53.9332 39.6747 54.2745 38.224C54.6158 36.7307 54.7865 35.1307 54.7865 33.424ZM60.9945 33.424C60.9945 35.9413 60.6532 38.2667 59.9705 40.4C59.3305 42.5333 58.3705 44.368 57.0905 45.904C55.8105 47.44 54.2318 48.6347 52.3545 49.488C50.5198 50.3413 48.4078 50.768 46.0185 50.768C44.0985 50.768 42.3918 50.512 40.8985 50C39.4478 49.488 38.3598 48.9973 37.6345 48.528V61.84H31.6825V17.744C33.0905 17.4027 34.8398 17.04 36.9305 16.656C39.0638 16.2293 41.5172 16.016 44.2905 16.016C46.8505 16.016 49.1545 16.4213 51.2025 17.232C53.2505 18.0427 54.9998 19.1947 56.4505 20.688C57.9012 22.1813 59.0105 24.016 59.7785 26.192C60.5892 28.3253 60.9945 30.736 60.9945 33.424ZM145.425 0.335999C147.174 0.335999 148.667 0.463998 149.905 0.719997C151.185 0.975997 152.081 1.21066 152.593 1.424L151.505 6.544C150.993 6.288 150.267 6.05333 149.329 5.84C148.39 5.584 147.238 5.456 145.873 5.456C143.099 5.456 141.158 6.224 140.049 7.76C138.939 9.25333 138.385 11.28 138.385 13.84V16.72H151.185V21.712H138.385V50H132.433V13.712C132.433 9.44533 133.478 6.16 135.569 3.856C137.659 1.50933 140.945 0.335999 145.425 0.335999ZM154.404 56.208C154.873 56.4213 155.47 56.6133 156.196 56.784C156.964 56.9973 157.71 57.104 158.436 57.104C160.782 57.104 162.617 56.5707 163.94 55.504C165.262 54.48 166.457 52.7947 167.524 50.448C164.836 45.328 162.318 39.9093 159.972 34.192C157.668 28.432 155.748 22.608 154.212 16.72H160.612C161.081 18.64 161.636 20.7093 162.276 22.928C162.958 25.1467 163.705 27.4293 164.516 29.776C165.326 32.1227 166.201 34.4693 167.14 36.816C168.078 39.1627 169.06 41.424 170.083 43.6C171.705 39.12 173.113 34.6827 174.308 30.288C175.502 25.8933 176.633 21.3707 177.7 16.72H183.844C182.308 22.992 180.601 29.0293 178.724 34.832C176.846 40.592 174.82 45.9893 172.644 51.024C171.79 52.944 170.894 54.5867 169.956 55.952C169.06 57.36 168.057 58.512 166.948 59.408C165.838 60.304 164.58 60.9653 163.172 61.392C161.806 61.8187 160.249 62.032 158.5 62.032C158.03 62.032 157.54 61.9893 157.028 61.904C156.516 61.8613 156.004 61.776 155.492 61.648C155.022 61.5627 154.574 61.456 154.148 61.328C153.764 61.2 153.486 61.0933 153.316 61.008L154.404 56.208Z" fill="white"/>
<path d="M96.2145 31.696C97.4945 32.6773 98.8385 33.8933 100.247 35.344C101.697 36.7947 103.105 38.3733 104.471 40.08C105.879 41.744 107.201 43.4507 108.439 45.2C109.676 46.9067 110.721 48.5067 111.575 50H104.599C103.703 48.5067 102.657 46.992 101.463 45.456C100.311 43.8773 99.0945 42.384 97.8145 40.976C96.5345 39.5253 95.2332 38.2027 93.9105 37.008C92.5878 35.8133 91.3292 34.8107 90.1345 34V50H84.1825V1.36L90.1345 0.335999V30.672C91.1585 29.648 92.2892 28.5173 93.5265 27.28C94.7638 26.0427 95.9798 24.784 97.1745 23.504C98.3692 22.224 99.4998 21.008 100.567 19.856C101.633 18.6613 102.551 17.616 103.319 16.72H110.295C109.313 17.7867 108.247 18.96 107.095 20.24C105.943 21.52 104.748 22.8213 103.511 24.144C102.273 25.424 101.015 26.7253 99.7345 28.048C98.4972 29.328 97.3238 30.544 96.2145 31.696Z" fill="#D46A00"/>
</svg>
